<svg xmlns="http://www.w3.org/2000/svg" xmlns:xlink="http://www.w3.org/1999/xlink" version="1.1" x="0px" y="0px" viewBox="0 0 91 91" enable-background="new 0 0 91 91" xml:space="preserve"><g><path d="M76.953,68.721c-1.158,0-2.1,0.939-2.1,2.1c0,2.134-1.738,3.867-3.871,3.867s-3.869-1.733-3.869-3.867   c0-2.133,1.736-3.866,3.869-3.866c1.16,0,2.1-0.938,2.1-2.101c0-1.16-0.939-2.1-2.1-2.1c-4.449,0-8.068,3.619-8.068,8.066   c0,4.449,3.619,8.066,8.068,8.066c4.451,0,8.072-3.617,8.072-8.066C79.055,69.66,78.113,68.721,76.953,68.721z"></path><path d="M76.133,18.637L57.379,0.79c-0.538-0.512-1.447-0.578-1.447-0.578H2.139c-1.16,0-2.1,0.939-2.1,2.1v81.103   c0,1.16,0.939,2.101,2.1,2.101h54.349c0.078,0.061,8.742,5.084,8.742,5.084c0.32,0.186,0.685,0.28,1.049,0.28   c0.185,0,0.365-0.022,0.546-0.071c0.539-0.146,0.995-0.496,1.274-0.979l2.047-3.552c0.631,0.039,1.228,0.033,1.845-0.012   l2.09,3.531c0.282,0.479,0.746,0.826,1.285,0.965c0.541,0.137,1.112,0.055,1.592-0.229l8.446-5.006   c0.998-0.592,1.328-1.879,0.736-2.877l-2.096-3.537c0.262-0.414,0.508-0.844,0.732-1.287h4.102c1.16,0,2.102-0.941,2.102-2.102   V65.91c0-1.16-0.94-2.1-2.102-2.1h-4.102c-0.248-0.492-0.523-0.97-0.824-1.433l2.055-3.563c0.279-0.481,0.355-1.057,0.211-1.594   c-0.145-0.539-0.498-0.998-0.979-1.275l-8.507-4.907c-0.481-0.279-1.055-0.354-1.594-0.209c-0.537,0.146-0.996,0.496-1.272,0.979   l-2.052,3.555c-0.629-0.039-1.209-0.035-1.844,0.012l-2.09-3.527c-0.59-0.998-1.879-1.328-2.875-0.736l-8.447,4.998   c-0.479,0.283-0.826,0.746-0.963,1.285c-0.139,0.541-0.059,1.113,0.228,1.592l2.098,3.541c-0.267,0.418-0.51,0.847-0.733,1.283   h-4.109c-1.162,0-2.1,0.939-2.1,2.101v9.813c0,1.16,0.938,2.103,2.1,2.103h4.109c0.252,0.493,0.526,0.971,0.826,1.434l-1.187,2.056   H4.238V4.411h49.594v8.656c0,5.068,4.125,9.191,9.197,9.191h9.555v22.146c0,1.16,0.941,2.101,2.1,2.101   c1.162,0,2.101-0.94,2.101-2.101V20.159C76.784,19.225,76.133,18.637,76.133,18.637z M58.031,13.067V7.208l5.615,5.346l5.785,5.504   h-6.402C60.273,18.058,58.031,15.819,58.031,13.067z M86.779,73.625H83.42c-0.863,0-1.637,0.529-1.955,1.33   c-0.398,1.018-0.928,1.943-1.568,2.752c-0.539,0.682-0.604,1.627-0.16,2.375l1.722,2.902l-4.834,2.863l-1.717-2.9   c-0.443-0.746-1.298-1.146-2.156-1c-1.188,0.199-2.133,0.215-3.422,0.018c-0.856-0.127-1.703,0.279-2.138,1.027l-1.682,2.916   l-4.406-2.545c-0.006-0.273-0.063-0.537-0.164-0.775l1.388-2.404c0.432-0.746,0.36-1.682-0.177-2.356   c-0.686-0.859-1.241-1.824-1.653-2.871c-0.315-0.802-1.09-1.33-1.953-1.33h-3.367V68.01h3.367c0.867,0,1.644-0.531,1.957-1.336   c0.381-0.977,0.91-1.904,1.576-2.76c0.528-0.68,0.588-1.617,0.147-2.359l-1.719-2.9l4.832-2.86l1.717,2.897   c0.437,0.736,1.283,1.136,2.129,1.004c1.351-0.211,2.166-0.215,3.445-0.02c0.859,0.133,1.705-0.277,2.139-1.027l1.685-2.922   l4.871,2.81l-1.685,2.916c-0.43,0.746-0.365,1.68,0.172,2.354c0.697,0.881,1.254,1.848,1.654,2.87   c0.314,0.806,1.09,1.334,1.955,1.334h3.359V73.625z"></path><path d="M43.07,20.606c-1.031-0.535-2.299-0.131-2.83,0.9l-9.191,17.77c-0.533,1.031-0.129,2.297,0.9,2.83   c0.309,0.16,0.639,0.234,0.965,0.234c0.758,0,1.492-0.414,1.865-1.135l9.191-17.771C44.504,22.405,44.1,21.138,43.07,20.606z"></path><path d="M50.457,41.812l9.996-8.885c0.447-0.398,0.705-0.969,0.705-1.57c0-0.6-0.258-1.17-0.705-1.57l-9.996-8.885   c-0.867-0.771-2.193-0.691-2.965,0.174c-0.77,0.867-0.693,2.195,0.174,2.965l8.229,7.316l-8.227,7.314   c-0.869,0.771-0.945,2.098-0.176,2.965c0.414,0.467,0.99,0.705,1.57,0.705C49.559,42.341,50.059,42.167,50.457,41.812z"></path><path d="M27.936,21.075c-0.771-0.865-2.098-0.945-2.965-0.174l-9.996,8.885c-0.449,0.4-0.703,0.971-0.703,1.57   c0,0.602,0.256,1.172,0.705,1.57l9.994,8.885c0.4,0.355,0.898,0.529,1.395,0.529c0.58,0,1.154-0.238,1.57-0.705   c0.771-0.867,0.691-2.193-0.174-2.965l-8.23-7.314l8.23-7.316C28.627,23.271,28.707,21.942,27.936,21.075z"></path><path d="M12.139,54.104c0,1.16,0.939,2.101,2.102,2.101h16.551c1.158,0,2.1-0.938,2.1-2.101c0-1.16-0.941-2.1-2.1-2.1H14.24   C13.078,52.004,12.139,52.943,12.139,54.104z"></path><path d="M37.76,52.004c-1.162,0-2.1,0.939-2.1,2.1c0,1.162,0.938,2.101,2.1,2.101h3.475c1.158,0,2.1-0.938,2.1-2.101   c0-1.16-0.941-2.1-2.1-2.1H37.76z"></path><path d="M14.24,64.611h4.996c1.16,0,2.1-0.939,2.1-2.101c0-1.157-0.939-2.1-2.1-2.1H14.24c-1.162,0-2.102,0.94-2.102,2.1   C12.139,63.672,13.078,64.611,14.24,64.611z"></path><path d="M47.762,62.512c0-1.158-0.943-2.1-2.102-2.1H27.68c-1.162,0-2.1,0.941-2.1,2.1c0,1.16,0.938,2.1,2.1,2.1h17.98   C46.818,64.611,47.762,63.672,47.762,62.512z"></path><path d="M14.691,73.754H32.47c1.16,0,2.1-0.941,2.1-2.1c0-1.16-0.939-2.103-2.1-2.103H14.691c-1.16,0-2.102,0.941-2.102,2.103   C12.59,72.813,13.531,73.754,14.691,73.754z"></path><path d="M44.059,69.553h-4.563c-1.158,0-2.102,0.941-2.102,2.102c0,1.158,0.943,2.101,2.102,2.101h4.563   c1.16,0,2.102-0.94,2.102-2.101C46.16,70.494,45.219,69.553,44.059,69.553z"></path></g></svg>